<svg width="248" height="233" viewBox="0 0 248 233" fill="none" xmlns="http://www.w3.org/2000/svg">
<mask id="path-1-outside-1_3387_86" maskUnits="userSpaceOnUse" x="0.0678711" y="0.545349" width="248" height="232" fill="black">
<rect fill="white" x="0.0678711" y="0.545349" width="248" height="232"/>
<path d="M108.477 14.5347C113.504 -0.117756 134.226 -0.117754 139.254 14.5347C142.965 25.3502 156.381 29.0641 165.125 21.6966L167.778 19.4616C179.118 9.90677 196.074 20.3805 192.607 34.7984C189.979 45.7254 199.592 55.682 210.604 53.4395L214.194 52.7086C228.457 49.804 237.818 67.1707 227.551 77.489C219.674 85.4047 223.228 98.889 233.952 102.004C248.233 106.153 248.233 126.481 233.952 130.63C223.228 133.745 219.674 147.23 227.551 155.145C237.818 165.464 228.457 182.83 214.194 179.926L210.604 179.195C199.592 176.952 189.979 186.909 192.607 197.836C196.074 212.254 179.118 222.728 167.778 213.173L165.125 210.938C156.381 203.57 142.965 207.284 139.254 218.1C134.226 232.752 113.504 232.752 108.477 218.1C104.766 207.284 91.3495 203.57 82.6051 210.938L79.9526 213.173C68.6122 222.728 51.6561 212.254 55.1235 197.836C57.7514 186.909 48.1384 176.952 37.1259 179.195L33.5365 179.926C19.2729 182.83 9.91183 165.464 20.1792 155.145C28.0558 147.23 24.5021 133.745 13.7786 130.63C-0.502355 126.481 -0.502357 106.153 13.7786 102.004C24.5021 98.889 28.0558 85.4047 20.1792 77.489C9.91183 67.1707 19.2729 49.804 33.5365 52.7086L37.1259 53.4395C48.1384 55.682 57.7514 45.7254 55.1235 34.7984C51.6561 20.3805 68.6122 9.90679 79.9526 19.4616L82.6052 21.6966C91.3496 29.0642 104.766 25.3502 108.477 14.5347Z"/>
</mask>
<path d="M108.477 14.5347C113.504 -0.117756 134.226 -0.117754 139.254 14.5347C142.965 25.3502 156.381 29.0641 165.125 21.6966L167.778 19.4616C179.118 9.90677 196.074 20.3805 192.607 34.7984C189.979 45.7254 199.592 55.682 210.604 53.4395L214.194 52.7086C228.457 49.804 237.818 67.1707 227.551 77.489C219.674 85.4047 223.228 98.889 233.952 102.004C248.233 106.153 248.233 126.481 233.952 130.63C223.228 133.745 219.674 147.23 227.551 155.145C237.818 165.464 228.457 182.83 214.194 179.926L210.604 179.195C199.592 176.952 189.979 186.909 192.607 197.836C196.074 212.254 179.118 222.728 167.778 213.173L165.125 210.938C156.381 203.57 142.965 207.284 139.254 218.1C134.226 232.752 113.504 232.752 108.477 218.1C104.766 207.284 91.3495 203.57 82.6051 210.938L79.9526 213.173C68.6122 222.728 51.6561 212.254 55.1235 197.836C57.7514 186.909 48.1384 176.952 37.1259 179.195L33.5365 179.926C19.2729 182.83 9.91183 165.464 20.1792 155.145C28.0558 147.23 24.5021 133.745 13.7786 130.63C-0.502355 126.481 -0.502357 106.153 13.7786 102.004C24.5021 98.889 28.0558 85.4047 20.1792 77.489C9.91183 67.1707 19.2729 49.804 33.5365 52.7086L37.1259 53.4395C48.1384 55.682 57.7514 45.7254 55.1235 34.7984C51.6561 20.3805 68.6122 9.90679 79.9526 19.4616L82.6052 21.6966C91.3496 29.0642 104.766 25.3502 108.477 14.5347Z" fill="#D7834E"/>
<path d="M82.6052 21.6966L84.5382 19.4023L82.6052 21.6966ZM79.9526 19.4616L78.0196 21.7559L79.9526 19.4616ZM37.1259 53.4395L36.5273 56.3792L37.1259 53.4395ZM33.5365 52.7086L32.9379 55.6483L33.5365 52.7086ZM33.5365 179.926L34.1351 182.865L33.5365 179.926ZM37.1259 179.195L36.5273 176.255L37.1259 179.195ZM79.9526 213.173L78.0196 210.878L79.9526 213.173ZM82.6051 210.938L80.6721 208.644L82.6051 210.938ZM167.778 213.173L165.845 215.467L167.778 213.173ZM210.604 179.195L211.203 176.255L210.604 179.195ZM214.194 179.926L213.595 182.865L214.194 179.926ZM167.778 19.4616L169.711 21.7558L167.778 19.4616ZM165.125 21.6966L163.192 19.4023L165.125 21.6966ZM167.058 23.9908L169.711 21.7558L165.845 17.1674L163.192 19.4023L167.058 23.9908ZM211.203 56.3792L214.792 55.6483L213.595 49.7689L210.006 50.4998L211.203 56.3792ZM214.792 176.986L211.203 176.255L210.006 182.135L213.595 182.865L214.792 176.986ZM169.711 210.878L167.058 208.644L163.192 213.232L165.845 215.467L169.711 210.878ZM80.6721 208.644L78.0196 210.878L81.8856 215.467L84.5381 213.232L80.6721 208.644ZM36.5273 176.255L32.9379 176.986L34.1351 182.865L37.7245 182.135L36.5273 176.255ZM32.9379 55.6483L36.5273 56.3792L37.7245 50.4998L34.1351 49.7689L32.9379 55.6483ZM78.0196 21.7559L80.6721 23.9908L84.5382 19.4023L81.8856 17.1674L78.0196 21.7559ZM80.6721 23.9908C91.029 32.717 106.919 28.3181 111.314 15.5083L105.639 13.5611C102.612 22.3822 91.6701 25.4114 84.5382 19.4023L80.6721 23.9908ZM58.0403 34.0969C55.2502 22.4952 68.8943 14.0674 78.0196 21.7559L81.8856 17.1674C68.3301 5.74622 48.0619 18.2657 52.2067 35.4999L58.0403 34.0969ZM36.5273 56.3792C49.6909 59.0597 61.1815 47.1583 58.0403 34.0969L52.2067 35.4999C54.3212 44.2925 46.586 52.3043 37.7245 50.4998L36.5273 56.3792ZM22.3057 75.3729C14.1332 67.1598 21.5844 53.3363 32.9379 55.6483L34.1351 49.7689C16.9614 46.2718 5.69051 67.1816 18.0526 79.605L22.3057 75.3729ZM14.6155 104.885C27.4995 101.142 31.8095 84.9238 22.3057 75.3729L18.0526 79.605C24.3022 85.8856 21.5047 96.6358 12.9416 99.1235L14.6155 104.885ZM14.6155 127.749C3.21866 124.438 3.21866 108.196 14.6155 104.885L12.9416 99.1235C-4.22338 104.11 -4.22337 128.524 12.9416 133.511L14.6155 127.749ZM22.3057 157.261C31.8095 147.711 27.4995 131.492 14.6155 127.749L12.9416 133.511C21.5047 135.999 24.3022 146.749 18.0526 153.029L22.3057 157.261ZM32.9379 176.986C21.5844 179.298 14.1332 165.475 22.3057 157.261L18.0526 153.029C5.69051 165.453 16.9614 186.363 34.1351 182.865L32.9379 176.986ZM58.0403 198.537C61.1815 185.476 49.6909 173.575 36.5273 176.255L37.7245 182.135C46.586 180.33 54.3212 188.342 52.2067 197.134L58.0403 198.537ZM78.0196 210.878C68.8943 218.567 55.2502 210.139 58.0403 198.537L52.2067 197.134C48.0619 214.369 68.3301 226.888 81.8856 215.467L78.0196 210.878ZM111.314 217.126C106.919 204.316 91.029 199.917 80.6721 208.644L84.5381 213.232C91.6701 207.223 102.612 210.252 105.639 219.073L111.314 217.126ZM136.416 217.126C132.316 229.077 115.414 229.077 111.314 217.126L105.639 219.073C111.593 236.428 136.137 236.428 142.091 219.073L136.416 217.126ZM167.058 208.644C156.701 199.917 140.811 204.316 136.416 217.126L142.091 219.073C145.118 210.252 156.06 207.223 163.192 213.232L167.058 208.644ZM189.69 198.537C192.48 210.139 178.836 218.567 169.711 210.878L165.845 215.467C179.4 226.888 199.668 214.369 195.524 197.134L189.69 198.537ZM211.203 176.255C198.039 173.575 186.549 185.476 189.69 198.537L195.524 197.134C193.409 188.342 201.144 180.33 210.006 182.135L211.203 176.255ZM225.424 157.261C233.597 165.475 226.146 179.298 214.792 176.986L213.595 182.865C230.769 186.363 242.04 165.453 229.678 153.029L225.424 157.261ZM233.115 127.749C220.231 131.492 215.921 147.711 225.424 157.261L229.678 153.029C223.428 146.749 226.225 135.999 234.789 133.511L233.115 127.749ZM233.115 104.885C244.512 108.196 244.512 124.438 233.115 127.749L234.789 133.511C251.954 128.524 251.954 104.11 234.789 99.1235L233.115 104.885ZM225.424 75.3729C215.921 84.9238 220.231 101.142 233.115 104.885L234.789 99.1235C226.225 96.6358 223.428 85.8856 229.678 79.605L225.424 75.3729ZM214.792 55.6483C226.146 53.3363 233.597 67.1598 225.424 75.3729L229.678 79.605C242.04 67.1816 230.769 46.2718 213.595 49.7689L214.792 55.6483ZM189.69 34.0969C186.549 47.1583 198.039 59.0597 211.203 56.3792L210.006 50.4998C201.144 52.3043 193.409 44.2925 195.524 35.4999L189.69 34.0969ZM169.711 21.7558C178.836 14.0673 192.48 22.4952 189.69 34.0969L195.524 35.4999C199.668 18.2657 179.4 5.7462 165.845 17.1674L169.711 21.7558ZM136.416 15.5083C140.811 28.3181 156.701 32.717 167.058 23.9908L163.192 19.4023C156.06 25.4113 145.118 22.3822 142.091 13.5611L136.416 15.5083ZM142.091 13.5611C136.137 -3.79322 111.593 -3.79323 105.639 13.5611L111.314 15.5083C115.414 3.55771 132.316 3.55771 136.416 15.5083L142.091 13.5611Z" fill="url(#paint0_linear_3387_86)" mask="url(#path-1-outside-1_3387_86)"/>
<path d="M108.477 12.2071C113.504 -2.44533 134.226 -2.44533 139.254 12.2071C142.965 23.0226 156.381 26.7366 165.125 19.369L167.778 17.134C179.118 7.5792 196.074 18.0529 192.607 32.4708C189.979 43.3978 199.592 53.3545 210.604 51.1119L214.194 50.381C228.457 47.4765 237.818 64.8431 227.551 75.1614C219.674 83.0771 223.228 96.5614 233.952 99.6768C248.233 103.826 248.233 124.154 233.952 128.302C223.228 131.418 219.674 144.902 227.551 152.818C237.818 163.136 228.457 180.503 214.194 177.598L210.604 176.867C199.592 174.625 189.979 184.581 192.607 195.508C196.074 209.926 179.118 220.4 167.778 210.845L165.125 208.61C156.381 201.243 142.965 204.957 139.254 215.772C134.226 230.425 113.504 230.425 108.477 215.772C104.766 204.957 91.3495 201.243 82.6051 208.61L79.9526 210.845C68.6122 220.4 51.6561 209.926 55.1235 195.508C57.7514 184.581 48.1384 174.625 37.1259 176.867L33.5365 177.598C19.2729 180.503 9.91183 163.136 20.1792 152.818C28.0558 144.902 24.5021 131.418 13.7786 128.302C-0.502355 124.154 -0.502357 103.826 13.7786 99.6768C24.5021 96.5614 28.0558 83.0771 20.1792 75.1614C9.91183 64.8431 19.2729 47.4765 33.5365 50.381L37.1259 51.1119C48.1384 53.3545 57.7514 43.3978 55.1235 32.4708C51.6561 18.0529 68.6122 7.57921 79.9526 17.1341L82.6052 19.369C91.3496 26.7366 104.766 23.0226 108.477 12.2071Z" fill="#D7834E"/>
<path fill-rule="evenodd" clip-rule="evenodd" d="M138.67 14.7725C133.642 0.1201 112.92 0.120098 107.892 14.7725C107.49 15.9458 106.973 17.0356 106.36 18.0366C152.323 27.16 186.766 64.78 186.766 109.802C186.766 161.649 141.09 203.679 84.7459 203.679C74.1315 203.679 63.8956 202.188 54.2725 199.42C52.1312 213.13 68.3842 222.665 79.3685 213.411L82.0211 211.176C90.7655 203.808 104.182 207.522 107.892 218.338C112.92 232.99 133.642 232.99 138.67 218.338C142.38 207.522 155.797 203.808 164.541 211.176L167.194 213.411C178.534 222.965 195.49 212.492 192.023 198.074C189.395 187.147 199.008 177.19 210.02 179.433L213.61 180.164C227.873 183.068 237.234 165.702 226.967 155.383C219.09 147.468 222.644 133.983 233.368 130.868C247.649 126.719 247.649 106.391 233.368 102.242C222.644 99.1269 219.09 85.6425 226.967 77.7268C237.234 67.4085 227.873 50.0419 213.61 52.9464L210.02 53.6774C199.008 55.9199 189.395 45.9632 192.023 35.0362C195.49 20.6183 178.534 10.1446 167.194 19.6995L164.541 21.9344C155.797 29.302 142.38 25.588 138.67 14.7725ZM61.3599 18.4036C65.2644 17.561 69.2552 16.9247 73.3181 16.508C69.1489 15.4081 64.8401 16.2394 61.3599 18.4036Z" fill="#D7834E"/>
<path d="M123.109 204.403C175.738 204.403 218.619 165.117 218.619 116.397C218.619 67.6775 175.738 28.3907 123.109 28.3907C70.48 28.3907 27.5986 67.6775 27.5986 116.397C27.5986 165.117 70.48 204.403 123.109 204.403Z" stroke="#D7834E" stroke-width="3"/>
<path d="M123.109 198.197C172.012 198.197 211.874 161.689 211.874 116.397C211.874 71.1054 172.012 34.5975 123.109 34.5975C74.2049 34.5975 34.3435 71.1054 34.3435 116.397C34.3435 161.689 74.2049 198.197 123.109 198.197Z" stroke="#D7834E" stroke-width="3"/>
<g filter="url(#filter0_di_3387_86)">
<path d="M107.329 149.401C105.89 149.401 104.883 149.17 104.307 148.706C103.731 148.176 103.444 147.316 103.444 146.124V143.244C103.444 141.986 103.731 141.092 104.307 140.563C104.883 140.033 105.89 139.768 107.329 139.768H117.905V95.7751L108.624 100.939C108.048 101.27 107.545 101.436 107.113 101.436C106.465 101.436 105.926 101.105 105.494 100.443L102.041 95.4772C101.753 95.0137 101.609 94.5834 101.609 94.1862C101.609 93.5241 102.005 92.9945 102.796 92.5972L120.603 82.7658C121.107 82.4347 121.61 82.203 122.114 82.0706C122.618 81.9382 123.301 81.872 124.165 81.872H127.726C130.46 81.872 131.827 83.0968 131.827 85.5464V139.768H142.403C143.842 139.768 144.85 140.033 145.425 140.563C146.001 141.092 146.289 141.986 146.289 143.244V146.124C146.289 147.316 146.001 148.176 145.425 148.706C144.85 149.17 143.842 149.401 142.403 149.401H107.329Z" fill="#D7834E"/>
<path d="M104.239 148.78L104.239 148.78L104.244 148.784C104.848 149.27 105.885 149.501 107.329 149.501H142.403C143.847 149.501 144.884 149.27 145.488 148.784L145.488 148.784L145.493 148.78C146.098 148.223 146.389 147.329 146.389 146.124V143.244C146.389 141.975 146.099 141.047 145.493 140.489C144.889 139.933 143.849 139.668 142.403 139.668H131.927V85.5464C131.927 84.3032 131.58 83.3533 130.869 82.7161C130.16 82.0809 129.106 81.772 127.726 81.772H124.165C123.297 81.772 122.604 81.8384 122.089 81.9739C121.574 82.1092 121.062 82.3452 120.551 82.6801L102.749 92.5087C101.939 92.9162 101.509 93.4739 101.509 94.1862C101.509 94.6078 101.662 95.0563 101.956 95.5299L101.956 95.53L101.958 95.5343L105.411 100.498C105.856 101.181 106.424 101.536 107.113 101.536C107.569 101.536 108.09 101.361 108.673 101.026C108.673 101.026 108.673 101.026 108.674 101.026L117.805 95.9452V139.668H107.329C105.884 139.668 104.844 139.933 104.239 140.489C103.633 141.047 103.344 141.975 103.344 143.244V146.124C103.344 147.329 103.634 148.223 104.239 148.78Z" stroke="white" stroke-width="0.2"/>
</g>
<defs>
<filter id="filter0_di_3387_86" x="51.4089" y="35.672" width="145.08" height="167.929" filterUnits="userSpaceOnUse" color-interpolation-filters="sRGB">
<feFlood flood-opacity="0" result="BackgroundImageFix"/>
<feColorMatrix in="SourceAlpha" type="matrix" values="0 0 0 0 0 0 0 0 0 0 0 0 0 0 0 0 0 0 127 0" result="hardAlpha"/>
<feOffset dy="4"/>
<feGaussianBlur stdDeviation="25"/>
<feComposite in2="hardAlpha" operator="out"/>
<feColorMatrix type="matrix" values="0 0 0 0 1 0 0 0 0 1 0 0 0 0 1 0 0 0 0.69 0"/>
<feBlend mode="normal" in2="BackgroundImageFix" result="effect1_dropShadow_3387_86"/>
<feBlend mode="normal" in="SourceGraphic" in2="effect1_dropShadow_3387_86" result="shape"/>
<feColorMatrix in="SourceAlpha" type="matrix" values="0 0 0 0 0 0 0 0 0 0 0 0 0 0 0 0 0 0 127 0" result="hardAlpha"/>
<feOffset dx="2" dy="2"/>
<feComposite in2="hardAlpha" operator="arithmetic" k2="-1" k3="1"/>
<feColorMatrix type="matrix" values="0 0 0 0 0.782904 0 0 0 0 0.63812 0 0 0 0 0.142972 0 0 0 1 0"/>
<feBlend mode="normal" in2="shape" result="effect2_innerShadow_3387_86"/>
</filter>
<linearGradient id="paint0_linear_3387_86" x1="123.865" y1="3.54535" x2="123.865" y2="229.089" gradientUnits="userSpaceOnUse">
<stop stop-color="#C09D23"/>
<stop offset="1" stop-color="#C09D23"/>
</linearGradient>
</defs>
</svg>
