<svg width="528" height="365" viewBox="0 0 528 365" fill="none" xmlns="http://www.w3.org/2000/svg">
<g filter="url(#filter0_dddiii_3387_77)">
<path d="M106.945 26.4465C106.945 26.4465 107.123 46.1661 80.6059 50.1299C86.0639 28.3899 106.945 26.4465 106.945 26.4465Z" fill="white"/>
<path d="M71.7779 40.1662C71.7779 40.1662 81.2373 54.5513 63.6495 69.6222C57.3709 51.1698 71.7779 40.1662 71.7779 40.1662Z" fill="white"/>
<path fill-rule="evenodd" clip-rule="evenodd" d="M62.1876 92.3846C61.2927 73.7004 46.5561 68.9614 46.5561 68.9614C46.5561 68.9614 41.9336 88.312 59.3753 100.882C56.7081 110.667 55.6103 121.204 55.4208 131.341C51.7065 106.669 31.573 103.007 31.573 103.007C31.573 103.007 28.9059 129.704 55.5408 142.139C55.9191 151.75 56.9546 160.558 58.0035 167.441C45.103 143.362 24 148.387 24 148.387C24 148.387 31.9494 171.857 58.9552 173.206C59.9415 178.744 60.747 182.057 60.747 182.057C63.9045 190.461 67.4193 198.09 71.2109 205.013C51.3538 180.025 27.8617 189.749 27.8617 189.749C27.8617 189.749 42.2635 216.813 75.5219 212.401C79.7717 219.239 84.3023 225.306 89.0161 230.686C60.8848 214.796 42.8112 232.665 42.8112 232.665C42.8112 232.665 65.9054 251.755 94.4078 236.471C100.199 242.309 106.2 247.211 112.243 251.323C83.3495 238.997 65.647 257.257 65.647 257.257C65.647 257.257 93.1719 279.048 125.737 259.252C158.891 275.895 189.527 271.867 189.527 271.867C194.804 277.463 199.836 276.284 202.987 273.895C202.859 274.165 202.74 274.434 202.631 274.7C201.94 275.335 201.29 275.992 200.679 276.668C156.363 267.442 143.905 303.581 143.905 303.581C168.693 308.841 180.454 297.111 190.66 286.93C193.184 284.412 195.613 281.989 198.121 279.941C195.665 283.591 194.118 287.653 193.26 291.885C185.573 292.999 183.371 299.868 183.371 299.868C183.371 299.868 188.705 301.015 192.664 295.773C192.431 297.948 192.357 300.147 192.414 302.34C184.325 305.862 184.839 313.92 184.839 313.92C184.839 313.92 191.675 312.879 192.49 304.165C192.535 304.946 192.595 305.724 192.67 306.5C192.862 308.488 193.148 310.457 193.507 312.382C193.429 312.387 193.35 312.393 193.27 312.399C193.389 312.626 193.511 312.845 193.636 313.057C193.894 314.369 194.185 315.66 194.502 316.921C188.345 319.998 188.75 326.348 188.75 326.348C188.75 326.348 194.033 325.543 195.057 319.012C195.651 321.127 196.311 323.143 197.003 325.022C196.623 325.025 196.227 325.041 195.816 325.073C196.52 326.416 197.368 327.447 198.272 328.237C199.088 330.169 199.918 331.896 200.712 333.359C200.647 333.349 200.581 333.34 200.514 333.332C202.49 340.479 209.429 341 209.429 341C209.429 341 209.345 335.056 201.643 333.517C200.941 332.263 200.203 330.787 199.467 329.131C202.71 331.194 206.164 330.733 206.164 330.733C206.164 330.733 204.915 325.356 197.8 325.036C196.857 322.505 195.97 319.714 195.228 316.761C195.228 316.73 195.228 316.698 195.228 316.666C195.228 316.64 195.228 316.614 195.228 316.587L195.189 316.604C195.027 315.954 194.872 315.297 194.726 314.634C199.063 320.027 205.618 319.152 205.618 319.152C205.618 319.152 203.969 312.053 194.258 312.346C193.895 310.412 193.606 308.433 193.413 306.435C193.225 304.494 193.128 302.536 193.142 300.583C194.872 307.939 201.902 309.588 201.902 309.588C201.902 309.588 203.009 302.06 193.178 299.004C193.237 297.454 193.37 295.91 193.586 294.384C194.037 293.613 194.46 292.738 194.842 291.744C194.568 291.754 194.3 291.771 194.039 291.794C195.056 286.93 197.006 282.319 200.224 278.334C200.757 277.956 201.296 277.597 201.842 277.261C200.429 284.014 204.552 289.049 204.552 289.049C204.552 289.049 210.764 283.129 204.939 273.7C204.996 273.656 205.053 273.611 205.11 273.567C205.136 273.547 205.161 273.528 205.186 273.508L204.721 272.945C204.679 272.978 204.636 273.01 204.594 273.043L204.543 273.083C204.465 272.965 204.384 272.846 204.302 272.727C205.565 271.416 206.297 270.018 206.298 269.222C208.812 269.53 211.179 268.969 213.667 268.031C207.792 276.064 211.255 284.789 211.255 284.789C211.255 284.789 221.022 279.986 217.484 266.418L217.758 266.296C225.125 263.009 234.456 258.845 251.244 263.929L251.244 261.287C229.779 254.025 211.666 261.955 211.666 261.955C210.325 256.67 202.946 256.011 193.553 264.6C193.553 264.6 161.116 269.373 126.783 252.426C140.23 211.379 110.818 196.58 110.818 196.58C110.818 196.58 98.8304 225.487 121.851 249.845C112.421 244.62 102.958 237.673 94.0895 228.459C116.504 195.349 93.5527 175.408 93.5527 175.408C93.5527 175.408 75.1621 199.192 92.4125 226.682C84.8647 218.523 77.7839 208.668 71.5667 196.773C102.123 170.287 84.99 145.12 84.99 145.12C84.99 145.12 60.2781 164.121 71.1363 195.944C68.8934 191.59 66.7656 186.967 64.7719 182.057C62.6298 173.586 60.8627 165.264 59.5932 157.091C86.885 142.11 78.4907 120.147 78.4907 120.147C78.4907 120.147 60.6053 128.278 58.4705 148.761C57.5062 140.257 57.1409 131.918 57.5177 123.744C88.9892 113.544 84.4341 89.2392 84.4341 89.2392C84.4341 89.2392 62.48 94.8777 57.8813 118.309C58.3771 112.688 59.2455 107.147 60.5346 101.685C60.8396 101.889 61.1508 102.09 61.4683 102.289C61.9084 99.8322 62.1447 97.5465 62.2107 95.4211C63.4046 91.4399 64.8371 87.502 66.5274 83.6074C95.5555 77.3456 94.4154 55.2617 94.4154 55.2617C94.4154 55.2617 70.3775 58.5042 65.1394 83.8902C65.571 83.8073 65.9962 83.721 66.4151 83.6315C64.7974 86.4021 63.3961 89.3337 62.1876 92.3846ZM201.513 276.846C201.703 276.641 201.898 276.437 202.096 276.236C202.029 276.471 201.968 276.704 201.914 276.935C201.78 276.905 201.646 276.876 201.513 276.846Z" fill="white"/>
<path d="M178.137 202.512C178.137 202.512 208.32 217.699 193.554 259.976C164.714 234.881 178.137 202.512 178.137 202.512Z" fill="white"/>
<path d="M221.133 247.736C221.133 247.736 232.336 243.737 239.938 257.636C226.448 258.914 221.133 247.736 221.133 247.736Z" fill="white"/>
<path d="M205.033 247.739C205.033 247.739 216.236 243.74 223.838 257.639C210.348 258.917 205.033 247.739 205.033 247.739Z" fill="white"/>
<path d="M233.878 282.933C233.878 282.933 244.524 277.661 239.495 262.671C229.284 271.449 233.878 282.933 233.878 282.933Z" fill="white"/>
<path d="M222.817 282.935C222.817 282.935 233.464 277.663 228.434 262.674C218.223 271.451 222.817 282.935 222.817 282.935Z" fill="white"/>
<path d="M201.249 299.164C201.249 299.164 206.119 293.047 198.808 285.464C195.204 293.561 201.249 299.164 201.249 299.164Z" fill="white"/>
<path d="M196.59 337.907C196.59 337.907 201.125 333.164 195.605 326.29C191.975 332.78 196.59 337.907 196.59 337.907Z" fill="white"/>
<path d="M147.04 204.5C147.04 204.5 177.224 219.686 162.458 261.964C133.617 236.869 147.04 204.5 147.04 204.5Z" fill="white"/>
<path d="M99.3203 301.215C99.3203 301.215 112.073 264.223 157.669 274.646C153.609 277.049 149.955 280.695 146.076 284.564C135.87 294.745 124.109 306.475 99.3203 301.215Z" fill="white"/>
<path d="M417.104 26.3888C417.104 26.3888 416.918 46.1085 443.433 50.0624C437.984 28.3244 417.104 26.3888 417.104 26.3888Z" fill="white"/>
<path d="M452.266 40.0954C452.266 40.0954 442.8 54.4841 460.382 69.5484C466.668 51.0936 452.266 40.0954 452.266 40.0954Z" fill="white"/>
<path fill-rule="evenodd" clip-rule="evenodd" d="M477.476 68.8812C477.476 68.8812 462.737 73.6258 461.835 92.3109C460.628 89.2602 459.227 86.3289 457.611 83.5587C458.03 83.6481 458.455 83.7342 458.886 83.8169C453.659 58.4329 429.622 55.1993 429.622 55.1993C429.622 55.1993 428.473 77.2836 457.498 83.5346C459.187 87.429 460.618 91.3667 461.811 95.3477C461.876 97.4728 462.111 99.7581 462.55 102.214C462.868 102.015 463.179 101.814 463.484 101.611C464.771 107.071 465.637 112.611 466.13 118.231C461.54 94.8032 439.59 89.1731 439.59 89.1731C439.59 89.1731 435.025 113.48 466.492 123.667C466.866 131.841 466.497 140.18 465.529 148.685C463.402 128.203 445.521 120.079 445.521 120.079C445.521 120.079 437.117 142.045 464.403 157.016C463.13 165.189 461.36 173.512 459.214 181.983C457.219 186.894 455.089 191.517 452.845 195.871C463.715 164.045 439.011 145.054 439.011 145.054C439.011 145.054 421.869 170.227 452.414 196.702C446.192 208.599 439.107 218.457 431.556 226.618C448.817 199.122 430.436 175.345 430.436 175.345C430.436 175.345 407.477 195.295 429.878 228.397C421.006 237.614 411.54 244.564 402.108 249.792C425.139 225.426 413.163 196.524 413.163 196.524C413.163 196.524 383.745 211.333 397.176 252.376C362.835 269.336 330.4 264.575 330.4 264.575C321.011 255.989 313.631 256.651 312.289 261.936C312.289 261.936 294.178 254.013 272.71 261.283L272.71 263.925C289.5 258.835 298.829 262.995 306.195 266.28L306.224 266.293C306.43 266.384 306.634 266.475 306.836 266.565C303.414 280.009 313.1 284.77 313.1 284.77C313.1 284.77 316.508 276.191 310.842 268.217C313.128 269.03 315.328 269.487 317.654 269.201C317.654 270.048 318.48 271.573 319.891 272.95C319.866 272.987 319.841 273.024 319.817 273.061C319.758 273.015 319.698 272.969 319.638 272.923L319.173 273.487C319.256 273.551 319.339 273.615 319.421 273.679C313.592 283.11 319.801 289.027 319.801 289.027C319.801 289.027 323.807 284.137 322.575 277.533C323.289 277.993 323.992 278.491 324.687 279.019C327.576 282.837 329.358 287.19 330.314 291.769C330.052 291.746 329.784 291.729 329.51 291.719C329.892 292.712 330.314 293.588 330.765 294.359C330.981 295.884 331.113 297.428 331.172 298.979C321.34 302.038 322.443 309.566 322.443 309.566C322.443 309.566 329.474 307.915 331.207 300.558C331.22 302.51 331.122 304.468 330.934 306.409C330.74 308.408 330.45 310.386 330.086 312.32C320.375 312.032 318.723 319.131 318.723 319.131C318.723 319.131 325.278 320.004 329.618 314.609C329.471 315.272 329.316 315.929 329.154 316.579L329.115 316.562C329.114 316.621 329.114 316.679 329.114 316.736C328.371 319.689 327.483 322.481 326.539 325.012C319.423 325.335 318.172 330.712 318.172 330.712C318.172 330.712 321.627 331.172 324.871 329.107C324.134 330.764 323.395 332.241 322.692 333.495C314.99 335.036 314.904 340.98 314.904 340.98C314.904 340.98 321.843 340.456 323.822 333.309C323.755 333.317 323.689 333.326 323.623 333.336C324.418 331.872 325.249 330.146 326.066 328.213C326.97 327.423 327.818 326.392 328.523 325.049C328.112 325.017 327.716 325 327.336 324.997C328.029 323.118 328.69 321.102 329.284 318.987C330.306 325.517 335.589 326.32 335.589 326.32C335.589 326.32 335.996 319.97 329.841 316.896C330.158 315.634 330.449 314.344 330.707 313.031C330.833 312.819 330.955 312.6 331.074 312.373C330.995 312.367 330.915 312.362 330.837 312.356C331.197 310.431 331.483 308.462 331.676 306.474C331.751 305.698 331.812 304.919 331.858 304.138C332.669 312.852 339.505 313.892 339.505 313.892C339.505 313.892 340.022 305.833 331.935 302.314C331.992 300.121 331.919 297.922 331.687 295.747C335.644 300.988 340.978 299.838 340.978 299.838C340.978 299.838 338.778 292.971 331.092 291.86C330.295 287.917 328.899 284.122 326.726 280.671C328.918 282.548 331.064 284.689 333.285 286.903C343.487 297.08 355.242 308.807 380.033 303.537C380.033 303.537 367.654 267.591 323.615 276.574C323.023 275.923 322.395 275.291 321.728 274.678C321.677 274.553 321.623 274.427 321.568 274.301C324.736 276.38 329.471 277.091 334.424 271.84C334.424 271.84 365.058 275.856 398.219 259.201C430.776 278.985 458.309 257.184 458.309 257.184C458.309 257.184 440.614 238.931 411.715 251.267C417.76 247.153 423.763 242.249 429.557 236.409C458.053 251.682 481.155 232.583 481.155 232.583C481.155 232.583 463.089 214.721 434.951 230.622C439.667 225.24 444.2 219.171 448.452 212.331C481.709 216.732 496.122 189.661 496.122 189.661C496.122 189.661 472.633 179.947 452.766 204.942C456.561 198.017 460.078 190.388 463.239 181.982C463.239 181.982 464.046 178.669 465.035 173.131C492.041 171.771 500 148.299 500 148.299C500 148.299 478.899 143.282 465.989 167.366C467.04 160.482 468.079 151.674 468.462 142.062C495.102 129.618 492.445 102.922 492.445 102.922C492.445 102.922 472.31 106.591 468.586 131.265C468.401 121.128 467.307 110.591 464.644 100.807C482.091 88.2302 477.476 68.8812 477.476 68.8812ZM322.424 276.826C322.375 276.624 322.321 276.419 322.262 276.213C322.437 276.391 322.608 276.569 322.777 276.75C322.659 276.775 322.542 276.801 322.424 276.826Z" fill="white"/>
<path d="M345.842 202.481C345.842 202.481 315.652 217.679 330.401 259.951C359.252 234.845 345.842 202.481 345.842 202.481Z" fill="white"/>
<path d="M376.937 204.457C376.937 204.457 346.747 219.655 361.497 261.927C390.347 236.821 376.937 204.457 376.937 204.457Z" fill="white"/>
<path d="M366.28 274.607C411.88 264.167 424.618 301.155 424.618 301.155C399.828 306.424 388.072 294.698 377.87 284.521C373.992 280.653 370.339 277.009 366.28 274.607Z" fill="white"/>
<path d="M303.237 247.721C303.237 247.721 292.036 243.726 284.428 257.628C297.918 258.9 303.237 247.721 303.237 247.721Z" fill="white"/>
<path d="M319.337 247.718C319.337 247.718 308.136 243.723 300.528 257.624C314.018 258.897 319.337 247.718 319.337 247.718Z" fill="white"/>
<path d="M290.478 282.922C290.478 282.922 279.834 277.655 284.869 262.663C295.077 271.437 290.478 282.922 290.478 282.922Z" fill="white"/>
<path d="M301.539 282.92C301.539 282.92 290.894 277.653 295.93 262.661C306.137 271.435 301.539 282.92 301.539 282.92Z" fill="white"/>
<path d="M323.101 299.142C323.101 299.142 318.233 293.026 325.547 285.44C329.148 293.536 323.101 299.142 323.101 299.142Z" fill="white"/>
<path d="M327.744 337.883C327.744 337.883 323.211 333.141 328.734 326.265C332.361 332.754 327.744 337.883 327.744 337.883Z" fill="white"/>
<path d="M139.106 57.3618C134.572 57.3626 131.566 54.6479 131.567 50.5519L131.571 30.8084C131.572 26.7585 134.579 24.0426 139.113 24.0418C143.647 24.0409 146.653 26.7557 146.652 30.8056L146.648 50.5491C146.647 54.6451 143.64 57.3609 139.106 57.3618ZM139.107 52.7596C140.491 52.7593 141.398 51.8847 141.398 50.5501L141.402 30.8526C141.403 29.518 140.496 28.6437 139.112 28.644C137.728 28.6442 136.821 29.5188 136.821 30.8535L136.817 50.5509C136.816 51.8856 137.723 52.7598 139.107 52.7596Z" fill="white"/>
<path d="M161.535 29.1921L155.665 29.1932L155.663 38.2135L160.96 38.2125L160.96 42.7227L155.662 42.7237L155.659 56.8064L150.409 56.8074L150.416 24.5919L161.536 24.5899L161.535 29.1921Z" fill="white"/>
<path d="M175.715 29.1894L169.844 29.1905L169.843 38.2109L175.14 38.2099L175.139 42.72L169.842 42.721L169.839 56.8038L164.589 56.8048L164.595 24.5893L175.715 24.5872L175.715 29.1894Z" fill="white"/>
<path d="M178.769 56.8021L178.775 24.5867L184.025 24.5857L184.018 56.8011L178.769 56.8021Z" fill="white"/>
<path d="M195.312 57.3513C190.778 57.3521 187.772 54.6374 187.773 50.5414L187.777 30.798C187.778 26.748 190.785 24.0322 195.319 24.0313C199.853 24.0305 202.859 26.7452 202.858 30.7952L202.857 37.2843L197.607 37.2852L197.608 30.8422C197.609 29.5075 196.702 28.6333 195.318 28.6335C193.934 28.6338 193.027 29.5084 193.027 30.843L193.023 50.5405C193.022 51.8751 193.929 52.7493 195.313 52.7491C196.697 52.7488 197.604 51.8742 197.604 50.5396L197.606 43.6363L202.855 43.6353L202.854 50.5386C202.853 54.6346 199.846 57.3505 195.312 57.3513Z" fill="white"/>
<path d="M206.522 56.7969L206.529 24.5815L211.778 24.5805L211.772 56.796L206.522 56.7969Z" fill="white"/>
<path d="M225.595 56.7934L224.738 48.6937L220.347 48.6945L219.486 56.7945L214.189 56.7955L218.586 24.5793L226.795 24.5777L231.131 56.7924L225.595 56.7934ZM220.777 44.4604L224.261 44.4597L222.975 32.2181L222.976 29.5948L222.069 29.595L222.068 32.2183L220.777 44.4604Z" fill="white"/>
<path d="M238.827 52.1887L244.363 52.1877L244.362 56.7899L233.576 56.7919L233.583 24.5765L238.833 24.5755L238.827 52.1887Z" fill="white"/>
<path d="M261.445 57.339C256.911 57.3398 253.905 54.6251 253.906 50.5291L253.907 45.6968L259.157 45.6958L259.156 50.5282C259.156 51.8628 260.062 52.737 261.446 52.7368C262.83 52.7365 263.785 51.8619 263.785 50.5273L263.786 46.6614C263.787 42.4734 254.003 42.0611 254.005 34.6515L254.005 30.7856C254.006 26.7357 256.966 24.0199 261.452 24.019C265.938 24.0182 268.944 26.7329 268.944 30.7829L268.943 35.1089L263.693 35.1099L263.694 30.7378C263.694 29.4952 262.787 28.621 261.451 28.6212C260.115 28.6215 259.256 29.45 259.255 30.7386L259.255 34.0522C259.254 38.2863 269.037 38.6986 269.036 46.1082L269.035 50.5263C269.034 54.6223 265.979 57.3382 261.445 57.339Z" fill="white"/>
<path d="M283.466 29.1694L277.596 29.1705L277.594 38.1908L282.891 38.1898L282.89 42.7L277.593 42.701L277.591 52.1815L283.461 52.1804L283.46 56.7826L272.34 56.7847L272.347 24.5693L283.467 24.5672L283.466 29.1694Z" fill="white"/>
<path d="M291.957 52.1788L297.493 52.1778L297.492 56.78L286.706 56.782L286.713 24.5666L291.963 24.5656L291.957 52.1788Z" fill="white"/>
<path d="M311.266 29.1642L305.396 29.1653L305.394 38.1856L310.691 38.1847L310.69 42.6948L305.393 42.6958L305.391 52.1763L311.261 52.1753L311.26 56.7775L300.14 56.7795L300.147 24.5641L311.267 24.562L311.266 29.1642Z" fill="white"/>
<path d="M321.904 57.3277C317.37 57.3286 314.364 54.6138 314.364 50.5179L314.368 30.7744C314.369 26.7245 317.376 24.0086 321.91 24.0078C326.444 24.0069 329.45 26.7217 329.45 30.7716L329.448 37.2607L324.199 37.2617L324.2 30.8186C324.2 29.484 323.293 28.6097 321.909 28.61C320.525 28.6102 319.618 29.4848 319.618 30.8195L319.614 50.5169C319.614 51.8515 320.521 52.7258 321.905 52.7255C323.289 52.7253 324.196 51.8507 324.196 50.5161L324.197 43.6127L329.447 43.6118L329.446 50.5151C329.445 54.611 326.438 57.3269 321.904 57.3277Z" fill="white"/>
<path d="M344.389 24.5558L344.388 29.1581L340.665 29.1588L340.66 56.772L335.41 56.773L335.416 29.1597L331.693 29.1604L331.694 24.5582L344.389 24.5558Z" fill="white"/>
<path d="M347.107 56.7708L347.113 24.5553L352.363 24.5544L352.357 56.7698L347.107 56.7708Z" fill="white"/>
<path d="M363.65 57.32C359.116 57.3208 356.11 54.6061 356.111 50.5101L356.115 30.7667C356.116 26.7167 359.123 24.0008 363.657 24C368.191 23.9992 371.197 26.7139 371.196 30.7638L371.192 50.5073C371.191 54.6033 368.184 57.3191 363.65 57.32ZM363.651 52.7178C365.035 52.7175 365.942 51.8429 365.943 50.5083L365.946 30.8108C365.947 29.4762 365.04 28.6019 363.656 28.6022C362.272 28.6025 361.365 29.4771 361.365 30.8117L361.361 50.5091C361.361 51.8438 362.267 52.718 363.651 52.7178Z" fill="white"/>
<path d="M374.954 56.7656L374.96 24.5502L381.355 24.549L385.551 42.4048L385.98 45.9484L386.839 45.9482L386.363 42.4046L386.366 24.548L391.616 24.5471L391.61 56.7625L385.262 56.7637L381.066 38.9079L380.637 35.3643L379.778 35.3645L380.207 38.9081L380.203 56.7646L374.954 56.7656Z" fill="white"/>
<path d="M135.615 87.7311L140.132 101.146L154.761 101.143L142.924 109.437L147.442 122.852L135.609 114.563L123.773 122.856L128.296 109.44L116.463 101.15L131.091 101.148L135.615 87.7311Z" fill="white"/>
<path d="M387.616 87.6842L392.134 101.099L406.762 101.096L394.926 109.39L399.444 122.805L387.611 114.516L375.775 122.809L380.298 109.393L368.465 101.104L383.093 101.101L387.616 87.6842Z" fill="white"/>
<path d="M183.217 136.502L181.582 121.062L173.213 121.063L171.572 136.504L161.473 136.506L169.856 75.0934L185.504 75.0905L193.77 136.5L183.217 136.502ZM174.033 112.992L180.674 112.991L178.223 89.655L178.224 84.6544L176.495 84.6547L176.494 89.6553L174.033 112.992Z" fill="white"/>
<path d="M196.845 136.499L189.761 75.0897L200.223 75.0878L204.035 120.882L204.034 125.882L205.672 125.882L205.673 120.882L209.503 75.0861L223.331 75.0835L227.143 120.878L227.142 125.878L228.78 125.878L228.781 120.877L232.611 75.0817L242.618 75.0799L235.51 136.492L220.863 136.495L217.05 93.6833L217.052 84.6472L215.323 84.6475L215.322 93.6836L211.401 136.496L196.845 136.499Z" fill="white"/>
<path d="M260.341 136.487L258.706 121.047L250.336 121.049L248.696 136.489L238.597 136.491L246.98 75.0791L262.627 75.0762L270.894 136.485L260.341 136.487ZM251.157 112.977L257.798 112.976L255.346 89.6406L255.347 84.64L253.619 84.6404L253.618 89.6409L251.157 112.977Z" fill="white"/>
<path d="M290.839 136.482L285.203 112.357L281.019 112.358L281.014 136.483L271.006 136.485L271.019 75.0746L286.303 75.0718C294.4 75.0703 299.857 79.8944 299.856 87.2636L299.853 100.423C299.852 104.81 297.85 108.319 294.393 110.338L300.938 136.48L290.839 136.482ZM281.024 83.8457L281.02 104.024L285.387 104.023C288.025 104.022 289.845 102.355 289.846 99.8108L289.848 88.0551C289.849 85.5109 288.029 83.8444 285.391 83.8449L281.024 83.8457Z" fill="white"/>
<path d="M316.773 75.0661C325.052 75.0646 330.601 80.0641 330.599 87.5211L330.592 124.017C330.591 131.474 325.04 136.475 316.761 136.477L301.75 136.48L301.762 75.0689L316.773 75.0661ZM320.585 123.492L320.592 88.0494C320.592 85.5052 318.773 83.8387 316.135 83.8392L311.768 83.84L311.759 127.705L316.126 127.704C318.764 127.703 320.584 126.036 320.585 123.492Z" fill="white"/>
<path d="M346.307 137.524C337.664 137.526 331.934 132.351 331.935 124.543L331.937 115.331L341.945 115.329L341.943 124.541C341.942 127.085 343.67 128.752 346.309 128.751C348.947 128.751 350.767 127.083 350.767 124.539L350.769 117.17C350.77 109.187 332.12 108.4 332.123 94.276L332.125 86.9067C332.126 79.1865 337.768 74.0094 346.32 74.0078C354.871 74.0063 360.602 79.1812 360.6 86.9014L360.599 95.148L350.591 95.1499L350.593 86.8156C350.593 84.4469 348.865 82.7803 346.318 82.7808C343.771 82.7813 342.133 84.3607 342.132 86.8171L342.131 93.1337C342.129 101.205 360.779 101.991 360.776 116.115L360.775 124.537C360.773 132.345 354.95 137.522 346.307 137.524Z" fill="white"/>
<path d="M210.96 199.896L311.631 199.877L311.629 208.506L210.958 208.525L210.96 199.896Z" fill="white"/>
</g>
<defs>
<filter id="filter0_dddiii_3387_77" x="0" y="0" width="528" height="365" filterUnits="userSpaceOnUse" color-interpolation-filters="sRGB">
<feFlood flood-opacity="0" result="BackgroundImageFix"/>
<feColorMatrix in="SourceAlpha" type="matrix" values="0 0 0 0 0 0 0 0 0 0 0 0 0 0 0 0 0 0 127 0" result="hardAlpha"/>
<feOffset/>
<feGaussianBlur stdDeviation="1"/>
<feComposite in2="hardAlpha" operator="out"/>
<feColorMatrix type="matrix" values="0 0 0 0 1 0 0 0 0 1 0 0 0 0 1 0 0 0 1 0"/>
<feBlend mode="normal" in2="BackgroundImageFix" result="effect1_dropShadow_3387_77"/>
<feColorMatrix in="SourceAlpha" type="matrix" values="0 0 0 0 0 0 0 0 0 0 0 0 0 0 0 0 0 0 127 0" result="hardAlpha"/>
<feOffset/>
<feGaussianBlur stdDeviation="12"/>
<feComposite in2="hardAlpha" operator="out"/>
<feColorMatrix type="matrix" values="0 0 0 0 0.9125 0 0 0 0 0.434191 0 0 0 0 0.114063 0 0 0 1 0"/>
<feBlend mode="normal" in2="effect1_dropShadow_3387_77" result="effect2_dropShadow_3387_77"/>
<feColorMatrix in="SourceAlpha" type="matrix" values="0 0 0 0 0 0 0 0 0 0 0 0 0 0 0 0 0 0 127 0" result="hardAlpha"/>
<feOffset dx="14" dy="10"/>
<feGaussianBlur stdDeviation="7"/>
<feComposite in2="hardAlpha" operator="out"/>
<feColorMatrix type="matrix" values="0 0 0 0 0 0 0 0 0 0 0 0 0 0 0 0 0 0 0.8 0"/>
<feBlend mode="normal" in2="effect2_dropShadow_3387_77" result="effect3_dropShadow_3387_77"/>
<feBlend mode="normal" in="SourceGraphic" in2="effect3_dropShadow_3387_77" result="shape"/>
<feColorMatrix in="SourceAlpha" type="matrix" values="0 0 0 0 0 0 0 0 0 0 0 0 0 0 0 0 0 0 127 0" result="hardAlpha"/>
<feOffset/>
<feGaussianBlur stdDeviation="7.5"/>
<feComposite in2="hardAlpha" operator="arithmetic" k2="-1" k3="1"/>
<feColorMatrix type="matrix" values="0 0 0 0 0.970833 0 0 0 0 0.711944 0 0 0 0 0 0 0 0 1 0"/>
<feBlend mode="normal" in2="shape" result="effect4_innerShadow_3387_77"/>
<feColorMatrix in="SourceAlpha" type="matrix" values="0 0 0 0 0 0 0 0 0 0 0 0 0 0 0 0 0 0 127 0" result="hardAlpha"/>
<feOffset/>
<feGaussianBlur stdDeviation="5"/>
<feComposite in2="hardAlpha" operator="arithmetic" k2="-1" k3="1"/>
<feColorMatrix type="matrix" values="0 0 0 0 0.9125 0 0 0 0 0.434191 0 0 0 0 0.114063 0 0 0 1 0"/>
<feBlend mode="normal" in2="effect4_innerShadow_3387_77" result="effect5_innerShadow_3387_77"/>
<feColorMatrix in="SourceAlpha" type="matrix" values="0 0 0 0 0 0 0 0 0 0 0 0 0 0 0 0 0 0 127 0" result="hardAlpha"/>
<feOffset/>
<feGaussianBlur stdDeviation="2"/>
<feComposite in2="hardAlpha" operator="arithmetic" k2="-1" k3="1"/>
<feColorMatrix type="matrix" values="0 0 0 0 0.866667 0 0 0 0 0.219608 0 0 0 0 0.243137 0 0 0 1 0"/>
<feBlend mode="normal" in2="effect5_innerShadow_3387_77" result="effect6_innerShadow_3387_77"/>
</filter>
</defs>
</svg>
