<svg width="75" height="71" viewBox="0 0 75 71" fill="none" xmlns="http://www.w3.org/2000/svg">
<g id="jam:info">
<path id="Vector" d="M37.5 65.0834C20.2406 65.0834 6.25 51.8389 6.25 35.5C6.25 19.1611 20.2406 5.91669 37.5 5.91669C54.7594 5.91669 68.75 19.1611 68.75 35.5C68.75 51.8389 54.7594 65.0834 37.5 65.0834ZM37.5 59.1667C44.1304 59.1667 50.4893 56.6732 55.1777 52.2349C59.8661 47.7965 62.5 41.7768 62.5 35.5C62.5 29.2232 59.8661 23.2035 55.1777 18.7652C50.4893 14.3268 44.1304 11.8334 37.5 11.8334C30.8696 11.8334 24.5107 14.3268 19.8223 18.7652C15.1339 23.2035 12.5 29.2232 12.5 35.5C12.5 41.7768 15.1339 47.7965 19.8223 52.2349C24.5107 56.6732 30.8696 59.1667 37.5 59.1667ZM37.5 29.5834C38.3288 29.5834 39.1237 29.895 39.7097 30.4498C40.2958 31.0046 40.625 31.7571 40.625 32.5417V47.3334C40.625 48.118 40.2958 48.8704 39.7097 49.4252C39.1237 49.98 38.3288 50.2917 37.5 50.2917C36.6712 50.2917 35.8763 49.98 35.2903 49.4252C34.7042 48.8704 34.375 48.118 34.375 47.3334V32.5417C34.375 31.7571 34.7042 31.0046 35.2903 30.4498C35.8763 29.895 36.6712 29.5834 37.5 29.5834ZM37.5 26.625C36.6712 26.625 35.8763 26.3133 35.2903 25.7585C34.7042 25.2038 34.375 24.4513 34.375 23.6667C34.375 22.8821 34.7042 22.1296 35.2903 21.5748C35.8763 21.02 36.6712 20.7084 37.5 20.7084C38.3288 20.7084 39.1237 21.02 39.7097 21.5748C40.2958 22.1296 40.625 22.8821 40.625 23.6667C40.625 24.4513 40.2958 25.2038 39.7097 25.7585C39.1237 26.3133 38.3288 26.625 37.5 26.625Z" fill="white"/>
</g>
</svg>
