<svg width="188" height="208" viewBox="0 0 188 208" fill="none" xmlns="http://www.w3.org/2000/svg">
<path d="M38.8812 180.304C52.782 186.818 59.6507 200.049 59.6507 200.049C59.6507 200.049 43.9819 202.719 30.0811 196.205C16.1804 189.692 9.31167 176.46 9.31167 176.46C9.31167 176.46 24.9805 173.79 38.8812 180.304Z" fill="#D7834E"/>
<path d="M76.4935 167.185C91.2215 171.916 99.9654 184.174 99.9654 184.174C99.9654 184.174 84.8306 188.763 70.1026 184.033C55.3747 179.302 46.6307 167.043 46.6307 167.043C46.6307 167.043 61.7655 162.455 76.4935 167.185Z" fill="#D7834E"/>
<path d="M108.124 146.715C121.837 149.564 131.029 159.718 131.029 159.718C131.029 159.718 117.987 165.251 104.274 162.402C90.5602 159.552 81.368 149.399 81.368 149.399C81.368 149.399 94.4099 143.865 108.124 146.715Z" fill="#D7834E"/>
<path d="M137.399 117.271C151.456 117.085 162.978 124.975 162.978 124.975C162.978 124.975 151.708 133.166 137.65 133.351C123.593 133.537 112.071 125.648 112.071 125.648C112.071 125.648 123.341 117.457 137.399 117.271Z" fill="#D7834E"/>
<path d="M159.609 82.2571C173.394 79.7177 186.285 85.5436 186.285 85.5436C186.285 85.5436 176.825 95.4869 163.039 98.0264C149.254 100.566 136.363 94.7399 136.363 94.7399C136.363 94.7399 145.823 84.7966 159.609 82.2571Z" fill="#D7834E"/>
<path d="M164.23 42.8719C172.443 37.5983 182.663 38.0206 182.663 38.0206C182.663 38.0206 179.568 46.993 171.355 52.2666C163.142 57.5401 152.922 57.1178 152.922 57.1178C152.922 57.1178 156.017 48.1454 164.23 42.8719Z" fill="#D7834E"/>
<path d="M30.9818 157.971C23.9029 170.762 9.52402 177.082 9.52402 177.082C9.52402 177.082 6.62233 162.664 13.7013 149.873C20.7802 137.082 35.1591 130.762 35.1591 130.762C35.1591 130.762 38.0608 145.18 30.9818 157.971Z" fill="#D7834E"/>
<path d="M65.145 145.926C60.0041 159.478 46.6821 167.524 46.6821 167.524C46.6821 167.524 41.6952 153.598 46.8361 140.045C51.977 126.493 65.299 118.447 65.299 118.447C65.299 118.447 70.2859 132.374 65.145 145.926Z" fill="#D7834E"/>
<path d="M95.5987 128.747C92.502 141.366 81.4676 149.825 81.4676 149.825C81.4676 149.825 75.454 137.824 78.5508 125.205C81.6475 112.586 92.6819 104.127 92.6819 104.127C92.6819 104.127 98.6955 116.128 95.5987 128.747Z" fill="#D7834E"/>
<path d="M120.648 102.504C120.85 115.439 112.276 126.041 112.276 126.041C112.276 126.041 103.375 115.67 103.173 102.735C102.971 89.7995 111.545 79.1978 111.545 79.1978C111.545 79.1978 120.446 89.5684 120.648 102.504Z" fill="#D7834E"/>
<path d="M140.215 70.545C142.974 83.23 136.643 95.0917 136.643 95.0917C136.643 95.0917 125.837 86.3869 123.078 73.7019C120.318 61.0169 126.649 49.1552 126.649 49.1552C126.649 49.1552 137.455 57.86 140.215 70.545Z" fill="#D7834E"/>
<path d="M147.942 40.3127C153.673 47.8699 153.214 57.2741 153.214 57.2741C153.214 57.2741 143.463 54.4257 137.732 46.8684C132.001 39.3112 132.46 29.9069 132.46 29.9069C132.46 29.9069 142.211 32.7554 147.942 40.3127Z" fill="#D7834E"/>
<path d="M163.413 16.9364C163.413 26.1518 157.188 33.6223 157.188 33.6223C157.188 33.6223 150.963 26.1518 150.963 16.9364C150.963 7.72112 157.188 0.25061 157.188 0.25061C157.188 0.25061 163.413 7.72112 163.413 16.9364Z" fill="#D7834E"/>
<path fill-rule="evenodd" clip-rule="evenodd" d="M168.676 54.2196C168.721 52.8656 168.744 51.5064 168.744 50.1422C168.744 47.1125 168.631 44.1071 168.409 41.1294C175.689 37.9513 183.118 38.2583 183.118 38.2583C183.118 38.2583 180.023 47.2307 171.81 52.5043C170.789 53.1603 169.736 53.7281 168.676 54.2196ZM135.698 133.544C140.012 128.829 143.967 123.828 147.525 118.575C156.831 120.692 163.433 125.212 163.433 125.212C163.433 125.212 152.163 133.403 138.105 133.589C137.294 133.6 136.491 133.584 135.698 133.544ZM100.165 161.387C106.303 158.005 112.137 154.206 117.622 150.032C126.182 154.098 131.485 159.955 131.485 159.955C131.485 159.955 118.443 165.489 104.729 162.639C103.145 162.31 101.622 161.884 100.165 161.387ZM56.862 176.972C65.727 175.269 74.2859 172.798 82.4531 169.64C93.8294 175.171 100.421 184.412 100.421 184.412C100.421 184.412 85.2859 189.001 70.558 184.27C65.1356 182.529 60.5244 179.767 56.862 176.972ZM158.617 1.80182C160.65 6.44925 162.398 11.2301 163.841 16.1261C163.516 9.66942 160.279 4.20702 158.617 1.80182ZM11.0015 178.78C16.5545 179.392 22.207 179.708 27.9394 179.708C30.9129 179.708 33.8648 179.623 36.7926 179.456C37.6444 179.786 38.4937 180.147 39.3365 180.542C53.2373 187.056 60.106 200.287 60.106 200.287C60.106 200.287 44.4372 202.957 30.5364 196.443C20.0348 191.522 13.5466 182.767 11.0015 178.78ZM158.456 98.8486C160.864 93.3904 162.88 87.7469 164.47 81.9478C176.476 81.1423 186.74 85.7814 186.74 85.7814C186.74 85.7814 177.28 95.7246 163.495 98.2641C161.794 98.5774 160.107 98.7633 158.456 98.8486Z" fill="#D7834E"/>
</svg>
