<svg width="435" height="316" viewBox="0 0 435 316" fill="none" xmlns="http://www.w3.org/2000/svg">
<mask id="path-1-outside-1_18_595" maskUnits="userSpaceOnUse" x="94.0684" y="0.545288" width="248" height="232" fill="black">
<rect fill="white" x="94.0684" y="0.545288" width="248" height="232"/>
<path d="M202.477 14.5346C207.504 -0.117817 228.227 -0.117815 233.254 14.5346C236.965 25.3501 250.381 29.0641 259.126 21.6965L261.778 19.4616C273.119 9.90671 290.075 20.3804 286.607 34.7983C283.979 45.7253 293.592 55.682 304.605 53.4395L308.194 52.7085C322.458 49.804 331.819 67.1706 321.552 77.4889C313.675 85.4046 317.229 98.889 327.952 102.004C342.233 106.153 342.233 126.481 327.952 130.63C317.229 133.745 313.675 147.23 321.552 155.145C331.819 165.464 322.458 182.83 308.194 179.926L304.605 179.195C293.592 176.952 283.979 186.909 286.607 197.836C290.075 212.254 273.119 222.727 261.778 213.173L259.126 210.938C250.381 203.57 236.965 207.284 233.254 218.1C228.227 232.752 207.504 232.752 202.477 218.1C198.766 207.284 185.35 203.57 176.606 210.938L173.953 213.173C162.613 222.727 145.657 212.254 149.124 197.836C151.752 186.909 142.139 176.952 131.126 179.195L127.537 179.926C113.273 182.83 103.912 165.464 114.18 155.145C122.056 147.23 118.503 133.745 107.779 130.63C93.4981 126.481 93.4981 106.153 107.779 102.004C118.503 98.889 122.056 85.4046 114.18 77.4889C103.912 67.1706 113.273 49.804 127.537 52.7085L131.126 53.4394C142.139 55.682 151.752 45.7253 149.124 34.7983C145.657 20.3804 162.613 9.90673 173.953 19.4616L176.606 21.6965C185.35 29.0641 198.766 25.3501 202.477 14.5346Z"/>
</mask>
<path d="M202.477 14.5346C207.504 -0.117817 228.227 -0.117815 233.254 14.5346C236.965 25.3501 250.381 29.0641 259.126 21.6965L261.778 19.4616C273.119 9.90671 290.075 20.3804 286.607 34.7983C283.979 45.7253 293.592 55.682 304.605 53.4395L308.194 52.7085C322.458 49.804 331.819 67.1706 321.552 77.4889C313.675 85.4046 317.229 98.889 327.952 102.004C342.233 106.153 342.233 126.481 327.952 130.63C317.229 133.745 313.675 147.23 321.552 155.145C331.819 165.464 322.458 182.83 308.194 179.926L304.605 179.195C293.592 176.952 283.979 186.909 286.607 197.836C290.075 212.254 273.119 222.727 261.778 213.173L259.126 210.938C250.381 203.57 236.965 207.284 233.254 218.1C228.227 232.752 207.504 232.752 202.477 218.1C198.766 207.284 185.35 203.57 176.606 210.938L173.953 213.173C162.613 222.727 145.657 212.254 149.124 197.836C151.752 186.909 142.139 176.952 131.126 179.195L127.537 179.926C113.273 182.83 103.912 165.464 114.18 155.145C122.056 147.23 118.503 133.745 107.779 130.63C93.4981 126.481 93.4981 106.153 107.779 102.004C118.503 98.889 122.056 85.4046 114.18 77.4889C103.912 67.1706 113.273 49.804 127.537 52.7085L131.126 53.4394C142.139 55.682 151.752 45.7253 149.124 34.7983C145.657 20.3804 162.613 9.90673 173.953 19.4616L176.606 21.6965C185.35 29.0641 198.766 25.3501 202.477 14.5346Z" fill="#D7834E"/>
<path d="M176.606 21.6965L178.539 19.4023L176.606 21.6965ZM173.953 19.4616L172.02 21.7558L173.953 19.4616ZM131.126 53.4394L130.528 56.3791L131.126 53.4394ZM127.537 52.7085L126.938 55.6482L127.537 52.7085ZM127.537 179.926L128.136 182.865L127.537 179.926ZM131.126 179.195L130.528 176.255L131.126 179.195ZM173.953 213.173L172.02 210.878L173.953 213.173ZM176.606 210.938L174.673 208.643L176.606 210.938ZM261.778 213.173L259.845 215.467L261.778 213.173ZM304.605 179.195L305.203 176.255L304.605 179.195ZM308.194 179.926L307.596 182.865L308.194 179.926ZM261.778 19.4616L263.711 21.7558L261.778 19.4616ZM259.126 21.6965L257.193 19.4023L259.126 21.6965ZM261.059 23.9907L263.711 21.7558L259.845 17.1673L257.193 19.4023L261.059 23.9907ZM305.203 56.3791L308.793 55.6482L307.596 49.7689L304.006 50.4998L305.203 56.3791ZM308.793 176.986L305.203 176.255L304.006 182.134L307.596 182.865L308.793 176.986ZM263.711 210.878L261.059 208.643L257.193 213.232L259.845 215.467L263.711 210.878ZM174.673 208.643L172.02 210.878L175.886 215.467L178.539 213.232L174.673 208.643ZM130.528 176.255L126.938 176.986L128.136 182.865L131.725 182.134L130.528 176.255ZM126.938 55.6482L130.528 56.3791L131.725 50.4998L128.136 49.7689L126.938 55.6482ZM172.02 21.7558L174.673 23.9907L178.539 19.4023L175.886 17.1673L172.02 21.7558ZM174.673 23.9907C185.029 32.7169 200.92 28.3181 205.315 15.5082L199.639 13.561C196.613 22.3822 185.671 25.4113 178.539 19.4023L174.673 23.9907ZM152.041 34.0968C149.251 22.4952 162.895 14.0673 172.02 21.7558L175.886 17.1673C162.331 5.74616 142.062 18.2656 146.207 35.4998L152.041 34.0968ZM130.528 56.3791C143.691 59.0597 155.182 47.1582 152.041 34.0968L146.207 35.4998C148.322 44.2924 140.586 52.3043 131.725 50.4998L130.528 56.3791ZM116.306 75.3728C108.134 67.1597 115.585 53.3362 126.938 55.6482L128.136 49.7689C110.962 46.2717 99.691 67.1815 112.053 79.605L116.306 75.3728ZM108.616 104.885C121.5 101.142 125.81 84.9237 116.306 75.3728L112.053 79.605C118.303 85.8856 115.505 96.6357 106.942 99.1234L108.616 104.885ZM108.616 127.749C97.2192 124.438 97.2192 108.196 108.616 104.885L106.942 99.1234C89.7771 104.11 89.7771 128.524 106.942 133.511L108.616 127.749ZM116.306 157.261C125.81 147.711 121.5 131.492 108.616 127.749L106.942 133.511C115.505 135.999 118.303 146.749 112.053 153.029L116.306 157.261ZM126.938 176.986C115.585 179.298 108.134 165.475 116.306 157.261L112.053 153.029C99.691 165.453 110.962 186.363 128.136 182.865L126.938 176.986ZM152.041 198.537C155.182 185.476 143.691 173.575 130.528 176.255L131.725 182.134C140.586 180.33 148.322 188.342 146.207 197.134L152.041 198.537ZM172.02 210.878C162.895 218.567 149.251 210.139 152.041 198.537L146.207 197.134C142.062 214.369 162.331 226.888 175.886 215.467L172.02 210.878ZM205.315 217.126C200.92 204.316 185.029 199.917 174.673 208.643L178.539 213.232C185.671 207.223 196.613 210.252 199.639 219.073L205.315 217.126ZM230.417 217.126C226.316 229.077 209.415 229.077 205.315 217.126L199.639 219.073C205.594 236.428 230.138 236.428 236.092 219.073L230.417 217.126ZM261.059 208.643C250.702 199.917 234.812 204.316 230.417 217.126L236.092 219.073C239.118 210.252 250.061 207.223 257.193 213.232L261.059 208.643ZM283.69 198.537C286.481 210.139 272.836 218.567 263.711 210.878L259.845 215.467C273.401 226.888 293.669 214.369 289.524 197.134L283.69 198.537ZM305.203 176.255C292.04 173.575 280.549 185.476 283.69 198.537L289.524 197.134C287.409 188.342 295.145 180.33 304.006 182.134L305.203 176.255ZM319.425 157.261C327.598 165.475 320.146 179.298 308.793 176.986L307.596 182.865C324.769 186.363 336.04 165.453 323.678 153.029L319.425 157.261ZM327.115 127.749C314.231 131.492 309.921 147.711 319.425 157.261L323.678 153.029C317.428 146.749 320.226 135.999 328.789 133.511L327.115 127.749ZM327.115 104.885C338.512 108.196 338.512 124.438 327.115 127.749L328.789 133.511C345.954 128.524 345.954 104.11 328.789 99.1234L327.115 104.885ZM319.425 75.3728C309.921 84.9237 314.231 101.142 327.115 104.885L328.789 99.1234C320.226 96.6357 317.428 85.8856 323.678 79.605L319.425 75.3728ZM308.793 55.6482C320.146 53.3362 327.598 67.1597 319.425 75.3728L323.678 79.605C336.04 67.1815 324.769 46.2717 307.596 49.7689L308.793 55.6482ZM283.69 34.0968C280.549 47.1582 292.04 59.0597 305.203 56.3791L304.006 50.4998C295.145 52.3043 287.409 44.2924 289.524 35.4998L283.69 34.0968ZM263.711 21.7558C272.836 14.0673 286.481 22.4952 283.69 34.0968L289.524 35.4998C293.669 18.2657 273.401 5.74614 259.845 17.1673L263.711 21.7558ZM230.417 15.5082C234.812 28.3181 250.702 32.7169 261.059 23.9907L257.193 19.4023C250.061 25.4113 239.118 22.3822 236.092 13.561L230.417 15.5082ZM236.092 13.561C230.138 -3.79328 205.594 -3.79329 199.639 13.561L205.315 15.5082C209.415 3.55765 226.316 3.55765 230.417 15.5082L236.092 13.561Z" fill="url(#paint0_linear_18_595)" mask="url(#path-1-outside-1_18_595)"/>
<path d="M202.477 12.2071C207.504 -2.44533 228.227 -2.44533 233.254 12.2071C236.965 23.0226 250.381 26.7366 259.126 19.369L261.778 17.134C273.119 7.5792 290.075 18.0529 286.607 32.4708C283.979 43.3978 293.592 53.3545 304.605 51.1119L308.194 50.381C322.458 47.4765 331.819 64.8431 321.552 75.1614C313.675 83.0771 317.229 96.5614 327.952 99.6768C342.233 103.826 342.233 124.154 327.952 128.302C317.229 131.418 313.675 144.902 321.552 152.818C331.819 163.136 322.458 180.503 308.194 177.598L304.605 176.867C293.592 174.625 283.979 184.581 286.607 195.508C290.075 209.926 273.119 220.4 261.778 210.845L259.126 208.61C250.381 201.243 236.965 204.957 233.254 215.772C228.227 230.425 207.504 230.425 202.477 215.772C198.766 204.957 185.35 201.243 176.606 208.61L173.953 210.845C162.613 220.4 145.657 209.926 149.124 195.508C151.752 184.581 142.139 174.625 131.126 176.867L127.537 177.598C113.273 180.503 103.912 163.136 114.18 152.818C122.056 144.902 118.503 131.418 107.779 128.302C93.4981 124.154 93.4981 103.826 107.779 99.6768C118.503 96.5614 122.056 83.0771 114.18 75.1614C103.912 64.8431 113.273 47.4765 127.537 50.381L131.126 51.1119C142.139 53.3545 151.752 43.3978 149.124 32.4708C145.657 18.0529 162.613 7.57921 173.953 17.1341L176.606 19.369C185.35 26.7366 198.766 23.0226 202.477 12.2071Z" fill="#D7834E"/>
<path fill-rule="evenodd" clip-rule="evenodd" d="M232.67 14.7725C227.643 0.1201 206.92 0.120098 201.893 14.7725C201.49 15.9458 200.974 17.0356 200.361 18.0366C246.323 27.16 280.767 64.78 280.767 109.802C280.767 161.649 235.091 203.679 178.746 203.679C168.132 203.679 157.896 202.188 148.273 199.42C146.132 213.13 162.385 222.665 173.369 213.411L176.022 211.176C184.766 203.808 198.182 207.522 201.893 218.338C206.92 232.99 227.643 232.99 232.67 218.338C236.381 207.522 249.797 203.808 258.542 211.176L261.194 213.411C272.535 222.965 289.491 212.492 286.023 198.074C283.395 187.147 293.008 177.19 304.021 179.433L307.61 180.164C321.874 183.068 331.235 165.702 320.967 155.383C313.091 147.467 316.645 133.983 327.368 130.868C341.649 126.719 341.649 106.391 327.368 102.242C316.645 99.1269 313.091 85.6425 320.967 77.7268C331.235 67.4085 321.874 50.0419 307.61 52.9464L304.021 53.6774C293.008 55.9199 283.395 45.9632 286.023 35.0362C289.491 20.6183 272.535 10.1446 261.194 19.6995L258.542 21.9344C249.797 29.302 236.381 25.588 232.67 14.7725ZM155.36 18.4036C159.265 17.561 163.256 16.9247 167.319 16.508C163.149 15.4081 158.841 16.2394 155.36 18.4036Z" fill="#D7834E"/>
<path d="M217.11 204.403C269.739 204.403 312.62 165.117 312.62 116.397C312.62 67.6775 269.739 28.3907 217.11 28.3907C164.481 28.3907 121.6 67.6775 121.6 116.397C121.6 165.117 164.481 204.403 217.11 204.403Z" stroke="#D7834E" stroke-width="3"/>
<path d="M217.109 198.197C266.013 198.197 305.874 161.689 305.874 116.397C305.874 71.1054 266.013 34.5975 217.109 34.5975C168.205 34.5975 128.344 71.1054 128.344 116.397C128.344 161.689 168.205 198.197 217.109 198.197Z" stroke="#D7834E" stroke-width="3"/>
<g filter="url(#filter0_di_18_595)">
<path d="M201.329 149.401C199.89 149.401 198.883 149.17 198.307 148.706C197.732 148.176 197.444 147.316 197.444 146.124V143.244C197.444 141.986 197.732 141.093 198.307 140.563C198.883 140.033 199.89 139.768 201.329 139.768H211.906V95.7751L202.624 100.939C202.049 101.27 201.545 101.436 201.113 101.436C200.466 101.436 199.926 101.105 199.495 100.443L196.041 95.4772C195.753 95.0138 195.609 94.5835 195.609 94.1862C195.609 93.5242 196.005 92.9945 196.797 92.5973L214.604 82.7658C215.107 82.4348 215.611 82.2031 216.115 82.0707C216.618 81.9383 217.302 81.8721 218.165 81.8721H221.727C224.461 81.8721 225.828 83.0969 225.828 85.5465V139.768H236.404C237.843 139.768 238.85 140.033 239.426 140.563C240.001 141.093 240.289 141.986 240.289 143.244V146.124C240.289 147.316 240.001 148.176 239.426 148.706C238.85 149.17 237.843 149.401 236.404 149.401H201.329Z" fill="#D7834E"/>
<path d="M198.24 148.78L198.24 148.78L198.245 148.784C198.848 149.27 199.886 149.501 201.329 149.501H236.404C237.847 149.501 238.885 149.27 239.488 148.784L239.489 148.784L239.493 148.78C240.098 148.223 240.389 147.329 240.389 146.124V143.244C240.389 141.975 240.099 141.047 239.493 140.489C238.889 139.933 237.849 139.668 236.404 139.668H225.928V85.5465C225.928 84.3032 225.58 83.3533 224.869 82.7162C224.16 82.0809 223.106 81.7721 221.727 81.7721H218.165C217.298 81.7721 216.605 81.8384 216.089 81.974C215.575 82.1092 215.062 82.3452 214.552 82.6801L196.75 92.5088C195.939 92.9162 195.509 93.474 195.509 94.1862C195.509 94.6078 195.662 95.0564 195.956 95.53L195.956 95.53L195.959 95.5343L199.412 100.498C199.857 101.181 200.425 101.536 201.113 101.536C201.569 101.536 202.091 101.361 202.674 101.026C202.674 101.026 202.674 101.026 202.674 101.026L211.806 95.9452V139.668H201.329C199.884 139.668 198.844 139.933 198.24 140.489C197.634 141.047 197.344 141.975 197.344 143.244V146.124C197.344 147.329 197.635 148.223 198.24 148.78Z" stroke="white" stroke-width="0.2"/>
</g>
<path d="M285.881 288.304C299.782 294.818 306.651 308.049 306.651 308.049C306.651 308.049 290.982 310.719 277.081 304.206C263.18 297.692 256.312 284.461 256.312 284.461C256.312 284.461 271.98 281.79 285.881 288.304Z" fill="#D7834E"/>
<path d="M323.494 275.185C338.222 279.916 346.966 292.174 346.966 292.174C346.966 292.174 331.831 296.763 317.103 292.033C302.375 287.302 293.631 275.044 293.631 275.044C293.631 275.044 308.766 270.455 323.494 275.185Z" fill="#D7834E"/>
<path d="M355.124 254.715C368.837 257.564 378.03 267.718 378.03 267.718C378.03 267.718 364.988 273.251 351.274 270.402C337.56 267.552 328.368 257.399 328.368 257.399C328.368 257.399 341.41 251.865 355.124 254.715Z" fill="#D7834E"/>
<path d="M384.399 225.271C398.456 225.085 409.978 232.975 409.978 232.975C409.978 232.975 398.708 241.166 384.65 241.352C370.593 241.537 359.071 233.648 359.071 233.648C359.071 233.648 370.341 225.457 384.399 225.271Z" fill="#D7834E"/>
<path d="M406.609 190.257C420.394 187.718 433.285 193.544 433.285 193.544C433.285 193.544 423.825 203.487 410.039 206.026C396.254 208.566 383.363 202.74 383.363 202.74C383.363 202.74 392.823 192.797 406.609 190.257Z" fill="#D7834E"/>
<path d="M411.231 150.872C419.443 145.598 429.663 146.021 429.663 146.021C429.663 146.021 426.568 154.993 418.355 160.267C410.142 165.54 399.922 165.118 399.922 165.118C399.922 165.118 403.018 156.146 411.231 150.872Z" fill="#D7834E"/>
<path d="M277.982 265.971C270.903 278.762 256.524 285.083 256.524 285.083C256.524 285.083 253.622 270.664 260.701 257.873C267.78 245.082 282.159 238.762 282.159 238.762C282.159 238.762 285.061 253.18 277.982 265.971Z" fill="#D7834E"/>
<path d="M312.145 253.926C307.004 267.478 293.682 275.524 293.682 275.524C293.682 275.524 288.695 261.598 293.836 248.045C298.977 234.493 312.299 226.447 312.299 226.447C312.299 226.447 317.286 240.374 312.145 253.926Z" fill="#D7834E"/>
<path d="M342.599 236.747C339.502 249.366 328.468 257.825 328.468 257.825C328.468 257.825 322.454 245.824 325.551 233.205C328.648 220.586 339.682 212.128 339.682 212.128C339.682 212.128 345.696 224.128 342.599 236.747Z" fill="#D7834E"/>
<path d="M367.648 210.504C367.85 223.439 359.276 234.041 359.276 234.041C359.276 234.041 350.375 223.67 350.173 210.735C349.971 197.8 358.545 187.198 358.545 187.198C358.545 187.198 367.446 197.568 367.648 210.504Z" fill="#D7834E"/>
<path d="M387.215 178.545C389.974 191.23 383.643 203.092 383.643 203.092C383.643 203.092 372.837 194.387 370.078 181.702C367.318 169.017 373.649 157.155 373.649 157.155C373.649 157.155 384.455 165.86 387.215 178.545Z" fill="#D7834E"/>
<path d="M394.942 148.313C400.673 155.87 400.214 165.274 400.214 165.274C400.214 165.274 390.463 162.426 384.732 154.869C379.001 147.311 379.46 137.907 379.46 137.907C379.46 137.907 389.211 140.756 394.942 148.313Z" fill="#D7834E"/>
<path d="M410.413 124.937C410.413 134.152 404.188 141.622 404.188 141.622C404.188 141.622 397.963 134.152 397.963 124.937C397.963 115.721 404.188 108.251 404.188 108.251C404.188 108.251 410.413 115.721 410.413 124.937Z" fill="#D7834E"/>
<path fill-rule="evenodd" clip-rule="evenodd" d="M415.676 162.22C415.721 160.866 415.744 159.506 415.744 158.142C415.744 155.113 415.631 152.107 415.409 149.129C422.689 145.951 430.119 146.258 430.119 146.258C430.119 146.258 427.023 155.231 418.81 160.504C417.789 161.16 416.736 161.728 415.676 162.22ZM382.698 241.544C387.012 236.829 390.967 231.828 394.525 226.575C403.831 228.692 410.433 233.212 410.433 233.212C410.433 233.212 399.163 241.403 385.105 241.589C384.294 241.6 383.491 241.584 382.698 241.544ZM347.165 269.387C353.303 266.005 359.137 262.206 364.622 258.032C373.182 262.098 378.485 267.956 378.485 267.956C378.485 267.956 365.443 273.489 351.729 270.64C350.145 270.31 348.622 269.884 347.165 269.387ZM303.862 284.972C312.727 283.269 321.286 280.798 329.453 277.64C340.829 283.171 347.421 292.412 347.421 292.412C347.421 292.412 332.286 297.001 317.558 292.27C312.136 290.529 307.524 287.767 303.862 284.972ZM405.617 109.802C407.65 114.449 409.398 119.23 410.841 124.126C410.516 117.669 407.279 112.207 405.617 109.802ZM258.001 286.78C263.555 287.393 269.207 287.708 274.939 287.708C277.913 287.708 280.865 287.623 283.793 287.456C284.644 287.786 285.494 288.147 286.337 288.542C300.237 295.056 307.106 308.287 307.106 308.287C307.106 308.287 291.437 310.957 277.536 304.443C267.035 299.522 260.547 290.767 258.001 286.78ZM405.456 206.849C407.865 201.39 409.88 195.747 411.47 189.948C423.476 189.142 433.74 193.781 433.74 193.781C433.74 193.781 424.28 203.725 410.495 206.264C408.794 206.577 407.107 206.763 405.456 206.849Z" fill="#D7834E"/>
<path d="M149.118 288.304C135.218 294.818 128.349 308.049 128.349 308.049C128.349 308.049 144.018 310.719 157.918 304.206C171.819 297.692 178.688 284.461 178.688 284.461C178.688 284.461 163.019 281.79 149.118 288.304Z" fill="#D7834E"/>
<path d="M111.506 275.185C96.7783 279.916 88.0343 292.174 88.0343 292.174C88.0343 292.174 103.169 296.763 117.897 292.033C132.625 287.302 141.369 275.044 141.369 275.044C141.369 275.044 126.234 270.455 111.506 275.185Z" fill="#D7834E"/>
<path d="M79.8762 254.715C66.1626 257.564 56.9704 267.718 56.9704 267.718C56.9704 267.718 70.0123 273.251 83.7259 270.402C97.4396 267.552 106.632 257.399 106.632 257.399C106.632 257.399 93.5898 251.865 79.8762 254.715Z" fill="#D7834E"/>
<path d="M50.6015 225.271C36.5441 225.085 25.0227 232.975 25.0227 232.975C25.0227 232.975 36.2929 241.166 50.3504 241.352C64.4079 241.537 75.9293 233.648 75.9293 233.648C75.9293 233.648 64.659 225.457 50.6015 225.271Z" fill="#D7834E"/>
<path d="M28.391 190.257C14.6056 187.718 1.71497 193.544 1.71497 193.544C1.71497 193.544 11.1749 203.487 24.9602 206.026C38.7456 208.566 51.6363 202.74 51.6363 202.74C51.6363 202.74 42.1764 192.797 28.391 190.257Z" fill="#D7834E"/>
<path d="M23.7695 150.872C15.5567 145.598 5.33665 146.021 5.33665 146.021C5.33665 146.021 8.43222 154.993 16.645 160.267C24.8578 165.54 35.0778 165.118 35.0778 165.118C35.0778 165.118 31.9823 156.146 23.7695 150.872Z" fill="#D7834E"/>
<path d="M157.018 265.971C164.097 278.762 178.476 285.083 178.476 285.083C178.476 285.083 181.378 270.664 174.299 257.873C167.22 245.082 152.841 238.762 152.841 238.762C152.841 238.762 149.939 253.18 157.018 265.971Z" fill="#D7834E"/>
<path d="M122.855 253.926C127.996 267.478 141.318 275.524 141.318 275.524C141.318 275.524 146.305 261.598 141.164 248.045C136.023 234.493 122.701 226.447 122.701 226.447C122.701 226.447 117.714 240.374 122.855 253.926Z" fill="#D7834E"/>
<path d="M92.401 236.747C95.4978 249.366 106.532 257.825 106.532 257.825C106.532 257.825 112.546 245.824 109.449 233.205C106.352 220.586 95.3178 212.128 95.3178 212.128C95.3178 212.128 89.3043 224.128 92.401 236.747Z" fill="#D7834E"/>
<path d="M67.3512 210.504C67.1492 223.439 75.7231 234.041 75.7231 234.041C75.7231 234.041 84.6246 223.67 84.8266 210.735C85.0286 197.8 76.4547 187.198 76.4547 187.198C76.4547 187.198 67.5532 197.568 67.3512 210.504Z" fill="#D7834E"/>
<path d="M47.7858 178.545C45.026 191.23 51.3574 203.092 51.3574 203.092C51.3574 203.092 62.1632 194.387 64.9229 181.702C67.6827 169.017 61.3513 157.155 61.3513 157.155C61.3513 157.155 50.5455 165.86 47.7858 178.545Z" fill="#D7834E"/>
<path d="M40.0589 148.313C34.3279 155.87 34.7869 165.274 34.7869 165.274C34.7869 165.274 44.5376 162.426 50.2686 154.869C55.9996 147.311 55.5407 137.907 55.5407 137.907C55.5407 137.907 45.7899 140.756 40.0589 148.313Z" fill="#D7834E"/>
<path d="M24.5874 124.937C24.5874 134.152 30.8123 141.622 30.8123 141.622C30.8123 141.622 37.0371 134.152 37.0371 124.937C37.0371 115.721 30.8123 108.251 30.8123 108.251C30.8123 108.251 24.5874 115.721 24.5874 124.937Z" fill="#D7834E"/>
<path fill-rule="evenodd" clip-rule="evenodd" d="M19.3248 162.22C19.2793 160.866 19.2564 159.506 19.2564 158.142C19.2564 155.113 19.3694 152.107 19.5917 149.129C12.3114 145.951 4.88197 146.258 4.88197 146.258C4.88197 146.258 7.97754 155.231 16.1904 160.504C17.2119 161.16 18.2646 161.728 19.3248 162.22ZM52.3024 241.544C47.9886 236.829 44.0336 231.828 40.4759 226.575C31.1694 228.692 24.5674 233.212 24.5674 233.212C24.5674 233.212 35.8377 241.403 49.8951 241.589C50.7066 241.6 51.5096 241.584 52.3024 241.544ZM87.8352 269.387C81.6977 266.005 75.8634 262.206 70.3787 258.032C61.8189 262.098 56.5156 267.956 56.5156 267.956C56.5156 267.956 69.5576 273.489 83.2712 270.64C84.8552 270.31 86.379 269.884 87.8352 269.387ZM131.139 284.972C122.273 283.269 113.715 280.798 105.547 277.64C94.1711 283.171 87.5797 292.412 87.5797 292.412C87.5797 292.412 102.715 297.001 117.442 292.27C122.865 290.529 127.476 287.767 131.139 284.972ZM29.3832 109.802C27.3509 114.449 25.603 119.23 24.1591 124.126C24.4846 117.669 27.7212 112.207 29.3832 109.802ZM176.999 286.78C171.446 287.393 165.794 287.708 160.061 287.708C157.088 287.708 154.136 287.623 151.208 287.456C150.356 287.786 149.507 288.147 148.664 288.542C134.763 295.056 127.894 308.287 127.894 308.287C127.894 308.287 143.563 310.957 157.464 304.443C167.966 299.522 174.454 290.767 176.999 286.78ZM29.544 206.849C27.136 201.39 25.1206 195.747 23.5301 189.948C11.5249 189.142 1.26056 193.781 1.26056 193.781C1.26056 193.781 10.7204 203.725 24.5058 206.264C26.2063 206.577 27.8932 206.763 29.544 206.849Z" fill="#D7834E"/>
<defs>
<filter id="filter0_di_18_595" x="145.409" y="35.6721" width="145.08" height="167.929" filterUnits="userSpaceOnUse" color-interpolation-filters="sRGB">
<feFlood flood-opacity="0" result="BackgroundImageFix"/>
<feColorMatrix in="SourceAlpha" type="matrix" values="0 0 0 0 0 0 0 0 0 0 0 0 0 0 0 0 0 0 127 0" result="hardAlpha"/>
<feOffset dy="4"/>
<feGaussianBlur stdDeviation="25"/>
<feComposite in2="hardAlpha" operator="out"/>
<feColorMatrix type="matrix" values="0 0 0 0 1 0 0 0 0 1 0 0 0 0 1 0 0 0 0.69 0"/>
<feBlend mode="normal" in2="BackgroundImageFix" result="effect1_dropShadow_18_595"/>
<feBlend mode="normal" in="SourceGraphic" in2="effect1_dropShadow_18_595" result="shape"/>
<feColorMatrix in="SourceAlpha" type="matrix" values="0 0 0 0 0 0 0 0 0 0 0 0 0 0 0 0 0 0 127 0" result="hardAlpha"/>
<feOffset dx="2" dy="2"/>
<feComposite in2="hardAlpha" operator="arithmetic" k2="-1" k3="1"/>
<feColorMatrix type="matrix" values="0 0 0 0 0.782904 0 0 0 0 0.63812 0 0 0 0 0.142972 0 0 0 1 0"/>
<feBlend mode="normal" in2="shape" result="effect2_innerShadow_18_595"/>
</filter>
<linearGradient id="paint0_linear_18_595" x1="217.866" y1="3.54529" x2="217.866" y2="229.089" gradientUnits="userSpaceOnUse">
<stop stop-color="#C09D23"/>
<stop offset="1" stop-color="#C09D23"/>
</linearGradient>
</defs>
</svg>
