<svg width="188" height="208" viewBox="0 0 188 208" fill="none" xmlns="http://www.w3.org/2000/svg">
<path d="M149.119 180.304C135.218 186.818 128.349 200.049 128.349 200.049C128.349 200.049 144.018 202.719 157.919 196.205C171.82 189.692 178.688 176.46 178.688 176.46C178.688 176.46 163.02 173.79 149.119 180.304Z" fill="#D7834E"/>
<path d="M111.506 167.185C96.7785 171.916 88.0346 184.174 88.0346 184.174C88.0346 184.174 103.169 188.763 117.897 184.033C132.625 179.302 141.369 167.043 141.369 167.043C141.369 167.043 126.234 162.455 111.506 167.185Z" fill="#D7834E"/>
<path d="M79.8765 146.715C66.1629 149.564 56.9706 159.718 56.9706 159.718C56.9706 159.718 70.0126 165.251 83.7262 162.402C97.4398 159.552 106.632 149.399 106.632 149.399C106.632 149.399 93.5901 143.865 79.8765 146.715Z" fill="#D7834E"/>
<path d="M50.6011 117.271C36.5436 117.085 25.0222 124.975 25.0222 124.975C25.0222 124.975 36.2925 133.166 50.3499 133.351C64.4074 133.537 75.9288 125.648 75.9288 125.648C75.9288 125.648 64.6585 117.457 50.6011 117.271Z" fill="#D7834E"/>
<path d="M28.3915 82.2571C14.6061 79.7177 1.71546 85.5436 1.71546 85.5436C1.71546 85.5436 11.1753 95.4869 24.9607 98.0264C38.7461 100.566 51.6368 94.7399 51.6368 94.7399C51.6368 94.7399 42.1769 84.7966 28.3915 82.2571Z" fill="#D7834E"/>
<path d="M23.7697 42.8719C15.5569 37.5983 5.3369 38.0206 5.3369 38.0206C5.3369 38.0206 8.43247 46.993 16.6453 52.2666C24.8581 57.5401 35.0781 57.1178 35.0781 57.1178C35.0781 57.1178 31.9825 48.1454 23.7697 42.8719Z" fill="#D7834E"/>
<path d="M157.018 157.971C164.097 170.762 178.476 177.082 178.476 177.082C178.476 177.082 181.378 162.664 174.299 149.873C167.22 137.082 152.841 130.762 152.841 130.762C152.841 130.762 149.939 145.18 157.018 157.971Z" fill="#D7834E"/>
<path d="M122.855 145.926C127.996 159.478 141.318 167.524 141.318 167.524C141.318 167.524 146.305 153.598 141.164 140.045C136.023 126.493 122.701 118.447 122.701 118.447C122.701 118.447 117.714 132.374 122.855 145.926Z" fill="#D7834E"/>
<path d="M92.4013 128.747C95.498 141.366 106.532 149.825 106.532 149.825C106.532 149.825 112.546 137.824 109.449 125.205C106.352 112.586 95.3181 104.127 95.3181 104.127C95.3181 104.127 89.3045 116.128 92.4013 128.747Z" fill="#D7834E"/>
<path d="M67.3517 102.504C67.1497 115.439 75.7236 126.041 75.7236 126.041C75.7236 126.041 84.6251 115.67 84.8271 102.735C85.0291 89.7995 76.4552 79.1978 76.4552 79.1978C76.4552 79.1978 67.5537 89.5684 67.3517 102.504Z" fill="#D7834E"/>
<path d="M47.7853 70.545C45.0255 83.23 51.3569 95.0917 51.3569 95.0917C51.3569 95.0917 62.1627 86.3869 64.9225 73.7019C67.6822 61.0169 61.3508 49.1552 61.3508 49.1552C61.3508 49.1552 50.545 57.86 47.7853 70.545Z" fill="#D7834E"/>
<path d="M40.0584 40.3127C34.3274 47.8699 34.7864 57.2741 34.7864 57.2741C34.7864 57.2741 44.5371 54.4257 50.2681 46.8684C55.9991 39.3112 55.5402 29.9069 55.5402 29.9069C55.5402 29.9069 45.7895 32.7554 40.0584 40.3127Z" fill="#D7834E"/>
<path d="M24.5874 16.9364C24.5874 26.1518 30.8123 33.6223 30.8123 33.6223C30.8123 33.6223 37.0371 26.1518 37.0371 16.9364C37.0371 7.72112 30.8123 0.25061 30.8123 0.25061C30.8123 0.25061 24.5874 7.72112 24.5874 16.9364Z" fill="#D7834E"/>
<path fill-rule="evenodd" clip-rule="evenodd" d="M19.3246 54.2197C19.2791 52.8657 19.2561 51.5064 19.2561 50.1423C19.2561 47.1126 19.3692 44.1072 19.5915 41.1295C12.3112 37.9514 4.88174 38.2584 4.88174 38.2584C4.88174 38.2584 7.97731 47.2308 16.1901 52.5043C17.2117 53.1603 18.2644 53.7282 19.3246 54.2197ZM52.3022 133.544C47.9884 128.829 44.0334 123.828 40.4757 118.575C31.1692 120.692 24.5672 125.212 24.5672 125.212C24.5672 125.212 35.8374 133.403 49.8949 133.589C50.7063 133.6 51.5094 133.584 52.3022 133.544ZM87.8349 161.387C81.6975 158.005 75.8632 154.206 70.3784 150.032C61.8187 154.098 56.5154 159.956 56.5154 159.956C56.5154 159.956 69.5573 165.489 83.271 162.64C84.855 162.31 86.3787 161.884 87.8349 161.387ZM131.138 176.972C122.273 175.269 113.714 172.798 105.547 169.64C94.1708 175.171 87.5795 184.412 87.5795 184.412C87.5795 184.412 102.714 189.001 117.442 184.27C122.865 182.529 127.476 179.767 131.138 176.972ZM29.383 1.80188C27.3507 6.44931 25.6027 11.2301 24.1589 16.1261C24.4844 9.66948 27.721 4.20708 29.383 1.80188ZM176.999 178.78C171.446 179.393 165.793 179.708 160.061 179.708C157.087 179.708 154.135 179.623 151.208 179.456C150.356 179.786 149.507 180.147 148.664 180.542C134.763 187.056 127.894 200.287 127.894 200.287C127.894 200.287 143.563 202.957 157.464 196.443C167.965 191.522 174.454 182.767 176.999 178.78ZM29.5438 98.8487C27.1358 93.3904 25.1204 87.7469 23.5299 81.9479C11.5247 81.1424 1.26033 85.7814 1.26033 85.7814C1.26033 85.7814 10.7202 95.7247 24.5056 98.2642C26.2061 98.5774 27.893 98.7634 29.5438 98.8487Z" fill="#D7834E"/>
</svg>
